<svg xmlns="http://www.w3.org/2000/svg" viewBox="0 0 1020 344"><title>plane bear-mountains far0</title><g id="d0eb4224-b61f-4ad7-b832-029094809650"><g id="7eef32df-52b9-43db-a5e0-a7c7d1565e85"><path d="M190.41,344l-72.49-71.94-3.29,3.08a4.13,4.13,0,0,1-5.57,0l-3.75-3.52a2.65,2.65,0,0,0-3.57,0L98,275.14a4.13,4.13,0,0,1-5.57,0L88,271a2.64,2.64,0,0,0-3.56,0L80,275.14a4.13,4.13,0,0,1-5.57,0l-2.58-2.41L0,344Z" fill="#c8c8c8"/><path d="M108.68,262.89l-10.8-10.72a3.83,3.83,0,0,0-5.36,0l-10.8,10.72-9.91,9.84,2.58,2.41a4.13,4.13,0,0,0,5.57,0L84.41,271A2.64,2.64,0,0,1,88,271l4.45,4.17a4.13,4.13,0,0,0,5.57,0l3.75-3.52a2.65,2.65,0,0,1,3.57,0l3.75,3.52a4.13,4.13,0,0,0,5.57,0l3.29-3.08Z" fill="#fff"/><path d="M692.17,344l-72.49-71.94-3.29,3.08a4.12,4.12,0,0,1-5.56,0l-3.76-3.52a2.64,2.64,0,0,0-3.56,0l-3.76,3.52a4.13,4.13,0,0,1-5.57,0L589.73,271a2.64,2.64,0,0,0-3.56,0l-4.45,4.17a4.13,4.13,0,0,1-5.57,0l-2.57-2.41L501.76,344Z" fill="#c8c8c8"/><path d="M610.44,262.89l-10.79-10.72a3.83,3.83,0,0,0-5.36,0l-10.8,10.72-9.91,9.84,2.57,2.41a4.13,4.13,0,0,0,5.57,0l4.45-4.17a2.64,2.64,0,0,1,3.56,0l4.45,4.17a4.13,4.13,0,0,0,5.57,0l3.76-3.52a2.64,2.64,0,0,1,3.56,0l3.76,3.52a4.12,4.12,0,0,0,5.56,0l3.29-3.08Z" fill="#fff"/><path d="M1020,344l-83.26-82.63L933,264.91a4.73,4.73,0,0,1-6.4,0l-4.31-4a3,3,0,0,0-4.09,0l-4.32,4a4.73,4.73,0,0,1-6.4,0l-5.11-4.79a3,3,0,0,0-4.09,0l-5.11,4.79a4.73,4.73,0,0,1-6.4,0l-3-2.77L801.3,344Z" fill="#c8c8c8"/><path d="M926.13,250.84l-12.4-12.31a4.38,4.38,0,0,0-6.16,0l-12.4,12.31-11.38,11.3,3,2.77a4.73,4.73,0,0,0,6.4,0l5.11-4.79a3,3,0,0,1,4.09,0l5.11,4.79a4.73,4.73,0,0,0,6.4,0l4.32-4a3,3,0,0,1,4.09,0l4.31,4a4.73,4.73,0,0,0,6.4,0l3.77-3.54Z" fill="#fff"/></g></g></svg>
