<svg xmlns="http://www.w3.org/2000/svg" viewBox="0 0 1020 344"><title>plane bear-mountains near0</title><g id="15db7eb7-24e1-45a3-a768-59bb363589a5"><g id="3a2d36b8-6462-41c3-867d-cbb3dceac7d6"><path d="M318.78,344,197.42,223.56l-5.5,5.16a6.91,6.91,0,0,1-9.32,0l-6.29-5.9a4.43,4.43,0,0,0-6,0l-6.29,5.9a6.91,6.91,0,0,1-9.32,0l-7.45-7a4.42,4.42,0,0,0-6,0l-7.46,7a6.91,6.91,0,0,1-9.32,0l-4.31-4L0,344Z" fill="#aaa"/><path d="M182,208.21l-18.08-18a6.39,6.39,0,0,0-9,0l-18.07,18-16.6,16.47,4.31,4a6.91,6.91,0,0,0,9.32,0l7.46-7a4.42,4.42,0,0,1,6,0l7.45,7a6.91,6.91,0,0,0,9.32,0l6.29-5.9a4.43,4.43,0,0,1,6,0l6.29,5.9a6.91,6.91,0,0,0,9.32,0l5.5-5.16Z" fill="#e5e5e5"/></g></g></svg>
