<svg xmlns="http://www.w3.org/2000/svg" viewBox="0 0 1020 344"><title>plane bear-mountains very far0</title><g id="8e280b63-c1cf-46e9-b9a8-b0ebb45c3243"><g id="ebd4e4d6-b47a-4fc3-8614-6fbbf45a60da"><path d="M118.66,344,73.49,299.17l-2,1.92a2.57,2.57,0,0,1-3.47,0l-2.34-2.2a1.65,1.65,0,0,0-2.22,0l-2.35,2.2a2.57,2.57,0,0,1-3.47,0l-2.77-2.6a1.63,1.63,0,0,0-2.22,0l-2.77,2.6a2.57,2.57,0,0,1-3.47,0l-1.61-1.51L0,344Z" fill="#e5e5e5"/><path d="M67.73,293.45,61,286.78a2.37,2.37,0,0,0-3.34,0l-6.73,6.67-6.18,6.13,1.61,1.51a2.57,2.57,0,0,0,3.47,0l2.77-2.6a1.63,1.63,0,0,1,2.22,0l2.77,2.6a2.57,2.57,0,0,0,3.47,0l2.35-2.2a1.65,1.65,0,0,1,2.22,0l2.34,2.2a2.57,2.57,0,0,0,3.47,0l2-1.92Z" fill="#fff"/><path d="M265.87,344,233,311.34l-1.49,1.4a1.86,1.86,0,0,1-2.53,0l-1.7-1.6a1.22,1.22,0,0,0-1.62,0l-1.7,1.6a1.86,1.86,0,0,1-2.53,0l-2-1.89a1.2,1.2,0,0,0-1.62,0l-2,1.89a1.86,1.86,0,0,1-2.53,0L212,311.65,179.44,344Z" fill="#e5e5e5"/><path d="M228.77,307.18l-4.9-4.86a1.72,1.72,0,0,0-2.43,0l-4.91,4.86-4.5,4.47,1.17,1.09a1.86,1.86,0,0,0,2.53,0l2-1.89a1.2,1.2,0,0,1,1.62,0l2,1.89a1.86,1.86,0,0,0,2.53,0l1.7-1.6a1.22,1.22,0,0,1,1.62,0l1.7,1.6a1.86,1.86,0,0,0,2.53,0l1.49-1.4Z" fill="#fff"/><path d="M697.9,344,665,311.34l-1.5,1.4a1.85,1.85,0,0,1-2.52,0l-1.71-1.6a1.22,1.22,0,0,0-1.62,0l-1.7,1.6a1.86,1.86,0,0,1-2.53,0l-2-1.89a1.2,1.2,0,0,0-1.62,0l-2,1.89a1.85,1.85,0,0,1-2.52,0l-1.17-1.09L611.47,344Z" fill="#e5e5e5"/><path d="M660.8,307.18l-4.9-4.86a1.72,1.72,0,0,0-2.43,0l-4.9,4.86-4.5,4.47,1.17,1.09a1.85,1.85,0,0,0,2.52,0l2-1.89a1.2,1.2,0,0,1,1.62,0l2,1.89a1.86,1.86,0,0,0,2.53,0l1.7-1.6a1.22,1.22,0,0,1,1.62,0l1.71,1.6a1.85,1.85,0,0,0,2.52,0l1.5-1.4Z" fill="#fff"/><path d="M513.84,344l-62-61.51-2.81,2.63a3.51,3.51,0,0,1-4.76,0l-3.21-3a2.26,2.26,0,0,0-3.05,0l-3.21,3a3.51,3.51,0,0,1-4.76,0l-3.81-3.57a2.27,2.27,0,0,0-3,0l-3.81,3.57a3.51,3.51,0,0,1-4.76,0l-2.2-2.06L351,344Z" fill="#e5e5e5"/><path d="M444,274.65l-9.23-9.17a3.27,3.27,0,0,0-4.58,0l-9.24,9.17-8.47,8.41,2.2,2.06a3.51,3.51,0,0,0,4.76,0l3.81-3.57a2.27,2.27,0,0,1,3,0l3.81,3.57a3.51,3.51,0,0,0,4.76,0l3.21-3a2.26,2.26,0,0,1,3.05,0l3.21,3a3.51,3.51,0,0,0,4.76,0l2.81-2.63Z" fill="#fff"/><path d="M1020,344l-62-61.51-2.81,2.63a3.51,3.51,0,0,1-4.76,0l-3.22-3a2.25,2.25,0,0,0-3,0l-3.21,3a3.52,3.52,0,0,1-4.77,0l-3.8-3.57a2.28,2.28,0,0,0-3,0l-3.8,3.57a3.51,3.51,0,0,1-4.76,0l-2.21-2.06L857.19,344Z" fill="#e5e5e5"/><path d="M950.12,274.65l-9.23-9.17a3.28,3.28,0,0,0-4.59,0l-9.23,9.17-8.48,8.41,2.21,2.06a3.51,3.51,0,0,0,4.76,0l3.8-3.57a2.28,2.28,0,0,1,3,0l3.8,3.57a3.52,3.52,0,0,0,4.77,0l3.21-3a2.25,2.25,0,0,1,3,0l3.22,3a3.51,3.51,0,0,0,4.76,0l2.81-2.63Z" fill="#fff"/></g></g></svg>
