<?xml version="1.0" encoding="utf-8"?>
<!-- Generator: Adobe Illustrator 22.1.0, SVG Export Plug-In . SVG Version: 6.00 Build 0)  -->
<svg version="1.1" id="Layer_1" xmlns="http://www.w3.org/2000/svg" xmlns:xlink="http://www.w3.org/1999/xlink" x="0px" y="0px"
	 viewBox="0 0 145.5 120" style="enable-background:new 0 0 145.5 120;" xml:space="preserve">
<style type="text/css">
	.st0{fill:#96876D;}
	.st1{fill:#D8CABE;}
	.st2{fill:#323232;}
	.st3{fill:#9B3D38;}
	.st4{fill:#E5E5E5;}
	.st5{fill:#AAAAAA;}
	.st6{fill:#C8C8C8;}
	.st7{fill:#B04E46;}
	.st8{fill:#FFFFFF;}
	.st9{fill:none;stroke:#565656;stroke-width:2;stroke-linecap:round;stroke-miterlimit:10;}
</style>
<title>plane bear</title>
<path class="st0" d="M54.9,12.9c-1.6-1.2-2.9-2.6-4-4.3c-0.4-1,0-3.8,1.4-4.2s5.2,1.5,5.2,1.5L54.9,12.9z"/>
<path class="st1" d="M55.4,11.5c-1.2-0.9-2.3-2-3.2-3.3c-0.3-0.8,0-1.7,0.7-2.3C53.7,5.4,57,7.3,57,7.3L55.4,11.5z"/>
<path class="st0" d="M79.9,8.7c1-1.5,1.7-3.2,2.1-5C82,2.6,80.8,0,79.5,0s-4,2.7-4,2.7L79.9,8.7z"/>
<path class="st1" d="M79,7.5c0.8-1.2,1.3-2.5,1.7-3.9c0-0.9-0.5-1.6-1.3-2c-1-0.4-3.1,2.3-3.1,2.3L79,7.5z"/>
<path class="st0" d="M95.1,38.7c3.6,4.5-44.7,11.6-41.4,7.8S49.9,12.2,57.6,5c7.8-6.4,12.9-5.2,18.1-2.6S89.9,32.2,95.1,38.7z"/>
<path class="st1" d="M70.5,14.1c1.2-0.7,16.3-1.7,17.5-0.5s1.5,7.8-0.7,9.5s-15.4,6.1-17.8,3.2S69.3,14.8,70.5,14.1z"/>
<ellipse class="st2" cx="88.4" cy="13.7" rx="2.8" ry="2.6"/>
<path class="st3" d="M141.3,36.4l-3.9,0.2l0.4,10.4c1.2,0,2.3-0.1,3.3-0.1C145.5,46.9,144.3,36.2,141.3,36.4z"/>
<ellipse id="_x35_de2f7d9-0ae6-4a74-97e6-35ddd4f83f45" transform="matrix(0.9837 -0.1796 0.1796 0.9837 -6.989 25.2069)" class="st4" cx="135.7" cy="51.2" rx="5.6" ry="35.5"/>
<path class="st5" d="M132.7,45.9l-3.9,0.2l0.4,9.9c1.2,0,2.3-0.1,3.3-0.1C137,55.9,135.8,45.8,132.7,45.9z"/>
<path class="st6" d="M126.5,31.1c-2.9,0.2-5.8,0.5-8.8,0.7l0.9,40c2.7-0.1,5.2-0.2,7.3-0.4C136,71.4,133.3,30.5,126.5,31.1z"/>
<path class="st3" d="M6.2,38.2c-1-5,3-7,6-7c2-1,1,3,3,5c0-2,0-4,1-5c1.1,0,1.9,1.2,2.7,2.1c-3.3-6-8.8-13.6-15.5-13.4
	c-3.2,0.1-3,7.7-1.7,16.6c0.1-0.5,0.3-0.9,0.5-1.3C4.2,36.2,5.2,37.2,6.2,38.2z"/>
<path class="st3" d="M117.7,31.8c-6.9,0.6-13.8,1.2-20.7,1.9C93.8,37.4,80.9,40,68,41.3c-10.9,1.1-22,1.3-27.1-1.1
	c-6.1,0.8-12.2,1.7-18.4,2.6c-0.6-1.3-1.3-2.9-2.3-4.7c-0.8-0.9-1.6-2.1-2.7-2.1c-1,1-1,3-1,5c-2-2-1-6-3-5c-3,0-7,2-6,7
	c-1-1-2-2-4-3c-0.2,0.4-0.3,0.8-0.5,1.3c1.5,10.4,4.6,22.6,5.6,26.4l0.1,1.8c42.3,1.5,91.5,2.8,115,1.9L117.7,31.8z"/>
<path class="st7" d="M67.3,100.1c-2.5,2.6-6.6,2.9-8.9,4.5c-1.6-2.3-2.1-5.5-2.5-8.6c-3.3,1.4-5.2,6.2-8,4.7
	c-1.8-1.3,1.2-6.9-0.5-8.2c-3.6-2.7-7,4.8-11.9,3.9c1.5-2.8,1.4-7.9,0.6-9c-1.5-0.9-3-0.8-4.5-0.2c-0.5,0.6-0.9,1.3-1.4,1.9
	c-5.3,7.3-10.1,14.2-12.3,18c-6.1,10.4,8.9,16.3,34.4,8.7c5.6-1.7,11.5-5,17.1-9.1c-0.9,0.5-1.8,1-2.5,1.5
	C66.4,105.1,66.7,103.1,67.3,100.1z"/>
<path class="st7" d="M105.2,57.5c-1.8-4.4-47.6-1.9-50.5,1.1c-1.7,1.8-9.1,15.7-15.6,29c1.4-0.9,2.8-1.3,4.4-0.6c1,1,2,6,1,9
	c5,0,7-8,11-6c2,1,0,7,2,8c3,1,4-4,7-6c1,3,2,6,4,8c2-2,6-3,8-6c0,3,0,5,1,8c0.6-0.6,1.4-1.3,2.2-1.9
	C94.9,84.2,106.5,60.9,105.2,57.5z"/>
<polygon class="st8" points="54.8,86.5 67.7,86.7 70.8,80.2 78.3,80.3 82.5,70.8 75.3,70.7 77.8,65.5 65.3,65.5 62.8,70.4 
	56.1,70.3 51.3,79.8 58.1,80 "/>
<path class="st7" d="M10.1,62.9C7.4,65-2.1,84.6,4.5,84.3c15.1-0.8,29.4-20.9,28.6-22.8S12.7,60.8,10.1,62.9z"/>
<path class="st9" d="M97,33.6C93.8,37.4,80.9,40,68,41.3c-10.9,1.1-22,1.3-27.1-1.1"/>
<path class="st2" d="M80,21.1c2,2.6-1.4,3.2-3.8,3.8c-2.4,0.6-6.7,1.1-5.1-1.7c0.9-1.6,1.4-3.2,3.8-3.8S79,19.8,80,21.1z"/>
<path class="st2" d="M65.8,12.6c-0.1,0-0.2,0-0.3-0.1l-5-3.8c-0.2-0.2-0.3-0.5-0.1-0.7c0.2-0.2,0.5-0.3,0.7-0.1l5,3.8
	c0.2,0.2,0.3,0.5,0.1,0.7C66.1,12.5,65.9,12.6,65.8,12.6z"/>
<path class="st2" d="M76.9,11.4c-0.1,0-0.2,0-0.3-0.1l-5-3.8c-0.2-0.2-0.3-0.5-0.1-0.7c0.2-0.2,0.5-0.3,0.7-0.1l5,3.8
	c0.2,0.2,0.3,0.5,0.1,0.7C77.2,11.3,77.1,11.4,76.9,11.4z"/>
<path class="st2" d="M61.3,13.3c-0.1,0-0.2,0-0.3-0.1c-0.2-0.2-0.3-0.5-0.1-0.7l3.8-5c0.2-0.2,0.5-0.3,0.7-0.1
	c0.2,0.2,0.3,0.5,0.1,0.7l-3.8,5C61.6,13.3,61.4,13.3,61.3,13.3z"/>
<path class="st2" d="M72.5,12.1c-0.1,0-0.2,0-0.3-0.1c-0.2-0.2-0.3-0.5-0.1-0.7l3.8-5C76,6.1,76.3,6,76.5,6.2
	c0.2,0.2,0.3,0.5,0.1,0.7l-3.8,5C72.8,12,72.7,12.1,72.5,12.1z"/>
</svg>
