<svg width="145" height="122" xmlns="http://www.w3.org/2000/svg">
 <title>plane bear</title>

 <g>
  <title>background</title>
  <rect fill="none" id="canvas_background" height="124" width="147" y="-1" x="-1"/>
 </g>
 <g>
  <title>Layer 1</title>
  <g id="032fe3e2-c1ea-4568-a5af-c698b18ada51">
   <g id="svg_38">
    <path id="svg_10" fill="#96876d" d="m52.735331,12.890669a16.67,16.67 0 0 1 -4,-4.26c-0.45,-1 0,-3.77 1.37,-4.17s5.25,1.48 5.25,1.48l-2.62,6.95z"/>
    <path id="svg_11" fill="#d8cabe" d="m53.205331,11.530669a15.45,15.45 0 0 1 -3.19,-3.26a2,2 0 0 1 0.67,-2.27c0.91,-0.64 4.14,1.3 4.14,1.3l-1.62,4.23z"/>
    <path id="svg_12" fill="#96876d" d="m77.715331,8.670669a15.37,15.37 0 0 0 2.09,-5c0.07,-1.1 -1.16,-3.62 -2.45,-3.67s-4,2.72 -4,2.72l4.36,5.95z"/>
    <path id="svg_13" fill="#d8cabe" d="m76.895331,7.490669a14.08,14.08 0 0 0 1.69,-3.88a2.22,2.22 0 0 0 -1.27,-2c-1,-0.38 -3.1,2.26 -3.1,2.26l2.68,3.62z"/>
    <path id="svg_14" fill="#96876d" d="m92.955331,38.680669c3.62,4.54 -44.72,11.61 -41.36,7.77s-3.8,-34.22 3.88,-41.45c7.75,-6.45 12.88,-5.16 18.09,-2.57s14.22,29.78 19.39,36.25z"/>
    <path id="svg_16" fill="#d8cabe" d="m68.355331,14.080669c1.2,-0.72 16.3,-1.66 17.5,-0.46s1.46,7.84 -0.7,9.53s-15.37,6.09 -17.77,3.21s-0.19,-11.56 0.97,-12.28z"/>
    <path id="svg_17" fill="#323232" d="m60.355331,14.350669a0.5,0.5 0 0 1 -0.44,-0.28a3.84,3.84 0 0 1 -0.24,-3a3.3,3.3 0 0 1 4.19,-2a3.78,3.78 0 0 1 2.12,2.06a0.49,0.49 0 0 1 -0.23,0.65a0.48,0.48 0 0 1 -0.64,-0.24a2.9,2.9 0 0 0 -1.58,-1.56a2.27,2.27 0 0 0 -1.75,0.1a2.46,2.46 0 0 0 -1,3.5a0.49,0.49 0 0 1 -0.23,0.65a0.54,0.54 0 0 1 -0.2,0.12z"/>
    <path id="svg_18" fill="#323232" d="m70.025331,11.170669a0.49,0.49 0 0 1 -0.48,-0.4a3.64,3.64 0 0 1 1.09,-3.53a3.32,3.32 0 0 1 3.26,-0.59a3.64,3.64 0 0 1 2.26,2.92a0.49,0.49 0 0 1 -0.39,0.57a0.5,0.5 0 0 1 -0.57,-0.39a2.68,2.68 0 0 0 -1.63,-2.19a2.4,2.4 0 0 0 -2.3,0.42a2.67,2.67 0 0 0 -0.76,2.62a0.5,0.5 0 0 1 -0.39,0.57l-0.09,0z"/>
    <path id="svg_19" fill="#323232" d="m74.545331,24.000669c-2.11,0 -4.44,-0.79 -5.3,-2.72a0.48,0.48 0 1 1 0.88,-0.4c0.8,1.77 3.28,2.33 5.24,2.11c1.75,-0.21 3.76,-1.11 4.13,-3a0.49,0.49 0 0 1 0.57,-0.38a0.48,0.48 0 0 1 0.38,0.56c-0.39,2 -2.3,3.5 -5,3.81a7.3,7.3 0 0 1 -0.9,0.02z"/>
    <ellipse id="svg_20" fill="#323232" ry="2.56" rx="2.84" cy="13.690669" cx="86.235331"/>
    <g id="f27d2f43-5cdf-4979-86e1-a58513c20353">
     <path id="svg_30" fill="#9b3d38" d="m140.625331,45.390669l-3.9,0.18l0.41,10.4c1.21,0 2.3,-0.06 3.26,-0.11c4.48,0 3.3,-10.61 0.23,-10.47z"/>
     <ellipse fill="#e5e5e5" ry="35.51" rx="5.56" cy="51.200669" cx="133.565331" id="5de2f7d9-0ae6-4a74-97e6-35ddd4f83f45"/>
     <path id="svg_31" fill="#aaa" d="m130.575331,45.900669l-3.91,0.17l0.41,9.9c1.22,0 2.31,-0.06 3.26,-0.1c4.49,0 3.31,-10.1 0.24,-9.97z"/>
     <path id="svg_32" fill="#c8c8c8" d="m124.355331,31.080669c-2.91,0.22 -5.83,0.46 -8.75,0.7l0.92,40c2.72,-0.1 5.17,-0.24 7.3,-0.41c10.01,-0.01 7.36,-40.82 0.53,-40.29z"/>
     <path id="svg_33" fill="#9b3d38" d="m115.555331,31.780669q-10.31,0.86 -20.67,1.87c-3.22,3.74 -16.17,6.32 -29.07,7.62c-10.85,1.09 -22,1.29 -27.09,-1.06q-9.17,1.24 -18.36,2.58c-2.5,-5.72 -9.16,-18.26 -17.75,-18.09c-7,0.14 2.07,35.94 3.85,43l0.12,1.78c42.28,1.45 86.33,3.12 109.89,2.26l-0.92,-39.96z"/>
     <path id="svg_34" fill="#b04e46" d="m52.405331,58.860669c-2.91,3 -21.37,39.69 -25.51,51.05s11.7,14.43 35.37,2.43c21.73,-11 42.42,-50.16 40.67,-54.56s-47.58,-1.87 -50.53,1.08z"/>
     <polygon id="svg_35" fill="#fff" points="80.39532470703125,70.81066417694092 73.18533325195312,70.66067028045654 75.63533020019531,65.51066875457764 63.14532470703125,65.48066997528076 60.685333251953125,70.41067028045654 53.935333251953125,70.28066539764404 49.17533874511719,79.82066631317139 55.92533874511719,79.95066356658936 52.66532897949219,86.4706678390503 65.57533264160156,86.71066570281982 68.66532897949219,80.20066356658936 76.15533447265625,80.35066509246826 80.39532470703125,70.81066417694092 "/>
     <path id="svg_36" fill="#b04e46" d="m7.905331,62.880669c-2.65,2.12 -12.17,21.71 -5.55,21.47c15.08,-0.82 29.37,-20.91 28.58,-22.79s-20.39,-0.77 -23.03,1.32z"/>
    </g>
    <path id="svg_37" stroke-width="2" stroke-miterlimit="10" stroke-linecap="round" stroke="#565656" fill="none" d="m94.885331,33.650669c-3.22,3.74 -16.17,6.32 -29.07,7.62c-10.85,1.09 -22,1.29 -27.09,-1.06"/>
   </g>
  </g>
 </g>
</svg>